<svg version="1.1" id="Layer_1" xmlns="http://www.w3.org/2000/svg" xmlns:xlink="http://www.w3.org/1999/xlink" x="0px" y="0px"
	 width="100%" viewBox="0 0 546 96" enable-background="new 0 0 546 96" xml:space="preserve">
<path fill="#FDFCFC" opacity="1.000000" stroke="none" 
	d="
M280.000000,97.000000 
	C187.063385,97.000000 94.126785,97.000000 1.095089,97.000000 
	C1.095089,65.085457 1.095089,33.170536 1.095089,1.000000 
	C89.687401,1.000000 178.375046,1.000000 267.509460,1.362302 
	C266.722321,3.366198 264.464539,4.980165 264.419373,6.653833 
	C264.106689,18.242605 264.254608,29.843801 264.254608,41.665771 
	C273.410248,41.665771 282.082550,41.665771 290.718628,41.665771 
	C290.718628,38.351772 290.718628,35.429039 290.718628,31.895073 
	C285.234650,31.895073 280.028107,31.895073 274.000000,31.895073 
	C274.000000,21.186462 274.000000,11.093231 274.000000,1.000000 
	C364.937195,1.000000 455.874390,1.000000 546.905762,1.000000 
	C546.905762,32.914856 546.905762,64.830078 546.905762,97.000000 
	C458.979279,97.000000 370.958282,97.000000 282.493530,96.653587 
	C282.963470,95.584694 283.784790,94.673843 284.806885,94.172035 
	C289.447998,91.893440 290.663605,88.243286 290.428955,83.215187 
	C290.025543,74.571114 290.313049,65.894806 290.310883,57.232025 
	C290.310211,54.655090 290.310760,52.078156 290.310760,49.660667 
	C286.413177,49.660667 283.346069,49.660667 280.000000,49.660667 
	C280.000000,65.694939 280.000000,81.347466 280.000000,97.000000 
M138.746643,25.066338 
	C138.880325,24.736694 139.014008,24.407051 139.037521,24.045082 
	C139.037521,24.045082 139.115082,24.129734 139.643600,23.880465 
	C139.899353,23.367058 140.155121,22.853649 140.210007,21.967655 
	C140.210007,21.967655 140.436508,22.325682 141.011383,21.982573 
	C141.600418,20.972666 142.189468,19.962757 142.809616,18.899536 
	C142.140793,18.631767 141.993576,18.522133 141.845383,18.520786 
	C135.519852,18.463299 129.194229,18.415447 122.855339,18.150558 
	C122.855339,18.150558 122.640144,18.129147 122.572823,17.376440 
	C122.447174,16.894588 122.321533,16.412737 122.648354,15.157633 
	C131.088760,14.657325 139.529175,14.157017 148.743164,13.610854 
	C148.743164,23.733686 148.743164,32.754337 148.743164,41.571949 
	C149.795502,41.827808 150.110001,41.969849 150.425079,41.971161 
	C156.248459,41.995403 162.071915,42.010284 167.895355,42.012032 
	C175.908554,42.014435 178.554855,40.103249 181.483841,32.034225 
	C174.763153,32.034225 168.132782,32.111710 161.508575,31.944983 
	C160.587372,31.921795 159.696457,30.695082 158.791519,30.025517 
	C159.632278,29.290968 160.366547,28.207451 161.340744,27.910154 
	C162.559875,27.538105 164.029022,27.569832 165.298615,27.846992 
	C172.804260,29.485510 175.873444,24.640377 179.043518,18.626328 
	C173.181137,18.626328 167.887283,18.465811 162.608902,18.682364 
	C159.048569,18.828432 158.087784,17.456402 160.043549,14.201684 
	C164.489029,14.191050 168.942596,14.326552 173.375137,14.081608 
	C174.722168,14.007171 176.011154,12.882805 177.112732,12.126051 
	C177.112732,12.126051 177.292114,12.288680 177.785553,12.075990 
	C177.913712,11.750810 178.041870,11.425630 178.070190,11.067243 
	C178.070190,11.067243 178.117416,11.161282 178.630753,10.982698 
	C178.770309,10.661802 178.909866,10.340906 178.997803,10.003885 
	C178.997803,10.003885 179.031769,10.046043 179.565781,9.791877 
	C179.822723,9.272502 180.079666,8.753128 180.068115,8.035996 
	C180.068115,8.035996 180.312897,8.262440 180.910950,7.878209 
	C181.612335,6.778767 182.313721,5.679325 183.187958,4.308945 
	C159.121841,4.308945 135.907410,4.308945 112.497467,4.308945 
	C112.497467,25.926859 112.497467,47.234928 112.497467,69.493011 
	C114.755234,67.624916 116.358040,66.298737 117.995399,65.003563 
	C117.995399,65.003563 117.981964,64.959396 118.508171,64.892509 
	C118.699417,64.612679 118.890671,64.332848 119.011330,64.009033 
	C119.011330,64.009033 119.045921,64.084656 119.583992,64.002884 
	C119.784355,63.718983 119.984718,63.435081 120.006676,63.068127 
	C120.006676,63.068127 120.165939,63.183750 120.894142,62.996159 
	C121.436516,61.212128 122.400185,59.440056 122.451233,57.642078 
	C122.731956,47.754204 122.789444,37.859993 123.473175,27.844412 
	C123.649612,27.780130 123.826050,27.715849 124.815292,27.863684 
	C126.204124,27.791840 127.592949,27.719995 129.624390,27.794132 
	C130.058029,27.744463 130.491653,27.694792 131.717087,27.854591 
	C133.592026,27.370174 135.466980,26.885759 137.251312,26.286991 
	C137.251312,26.286991 137.388321,26.337139 137.863220,26.134897 
	C138.001450,25.828360 138.139664,25.521822 138.116867,25.101665 
	C138.116867,25.101665 138.232086,25.261547 138.746643,25.066338 
M257.129211,11.903888 
	C257.129211,11.903888 257.232880,11.898548 257.176208,11.282107 
	C256.815765,10.812144 256.455322,10.342182 256.054291,9.950331 
	C256.054291,9.950331 256.142212,9.945618 256.110870,9.408739 
	C255.883209,9.150578 255.655548,8.892416 255.306030,8.896428 
	C255.306030,8.896428 255.482986,8.667804 255.356628,7.999608 
	C254.963654,7.461581 254.570679,6.923554 254.213409,6.181428 
	C254.213409,6.181428 254.046875,6.058145 253.876785,5.241788 
	C253.356293,4.870083 252.838043,4.177869 252.314987,4.174245 
	C242.884369,4.108897 233.453171,4.126673 223.560501,4.126673 
	C223.560501,10.390181 223.497421,16.188471 223.575211,21.984871 
	C223.693161,30.775539 223.909027,39.564892 223.886566,49.115917 
	C223.886566,55.159401 223.886566,61.202885 223.886566,67.246368 
	C223.373932,67.375092 222.861313,67.503815 222.348679,67.632538 
	C218.266190,62.930550 213.942169,58.412376 210.179092,53.467323 
	C207.266037,49.639297 203.993546,48.334694 199.475342,49.779232 
	C199.475342,64.485474 199.475342,79.116997 199.475342,93.996162 
	C209.249039,87.678551 209.249252,87.678551 209.252655,77.857231 
	C209.253555,75.272263 209.252777,72.687302 209.252777,70.102333 
	C213.339035,73.540138 216.792709,77.124924 219.207474,81.309265 
	C222.645615,87.266922 227.439392,88.210464 233.725006,86.655891 
	C233.725006,72.109795 233.725006,57.491207 233.891052,42.003319 
	C233.830002,38.342228 233.768936,34.681137 234.311646,30.375595 
	C237.450607,30.264067 240.644196,29.755283 243.709854,30.176798 
	C245.852554,30.471413 247.820282,32.038570 249.722733,33.947723 
	C249.722733,36.535831 249.722733,39.123940 249.722733,41.705544 
	C253.398911,41.705544 256.435822,41.705544 259.989960,41.705544 
	C258.980927,36.497757 262.015564,31.047224 256.878754,26.530695 
	C256.737091,26.212772 256.495087,26.022532 256.012146,25.193810 
	C256.108276,24.177629 256.204407,23.161449 256.182037,22.132896 
	C256.182037,22.132896 256.236328,22.238958 256.773621,21.871119 
	C257.214111,20.890905 257.654633,19.910692 258.230255,18.818399 
	C258.230255,18.818399 258.210358,18.643974 258.758850,18.255377 
	C258.589539,16.751127 258.420197,15.246877 258.204590,13.854823 
	C258.204590,13.854823 258.322510,13.826043 258.246277,13.214460 
	C257.888031,12.746017 257.529816,12.277575 257.129211,11.903888 
M194.288742,50.920921 
	C194.288742,44.668510 194.288742,38.416096 194.288742,32.132950 
	C199.510605,32.132950 203.915512,32.132950 208.599838,32.132950 
	C208.768799,35.516602 208.921936,38.583107 209.074631,41.640663 
	C212.515503,41.640663 215.555222,41.640663 218.481140,41.640663 
	C218.681000,40.953491 218.848999,40.643185 218.850296,40.332188 
	C218.880676,33.014523 218.911255,25.696762 218.904266,18.379055 
	C218.895004,8.687865 214.247177,4.087253 204.509338,4.084039 
	C201.681671,4.083106 198.854019,4.081769 196.026352,4.082822 
	C190.169479,4.085003 184.199722,9.558642 184.258957,15.471283 
	C184.398438,29.393972 184.842438,43.313610 184.936508,58.001984 
	C184.706131,65.450516 184.426819,72.897980 184.263596,80.347984 
	C184.164642,84.863846 184.245361,89.383652 184.245361,94.990387 
	C186.580719,92.508926 188.187332,91.058205 189.478790,89.366837 
	C191.227249,87.076950 194.012787,84.658554 194.120758,82.197350 
	C194.564194,72.089081 194.161240,61.943695 194.288742,50.920921 
M419.984863,66.968788 
	C423.325073,63.096138 422.759369,59.317036 419.837097,55.485741 
	C418.941223,54.311211 418.518799,52.770355 417.600983,51.619404 
	C416.850708,50.678528 415.697357,49.428387 414.703247,49.410751 
	C405.289459,49.243721 395.871490,49.311283 386.347687,49.311283 
	C386.347687,62.197414 386.347687,74.436043 386.347687,87.186478 
	C393.650879,87.186478 400.802002,86.650772 407.832428,87.342209 
	C414.419739,87.990082 418.163818,85.807114 420.769501,79.786903 
	C422.212799,76.452179 423.025299,73.860916 420.674133,70.809570 
	C420.049316,69.998665 419.992035,68.750473 419.984863,66.968788 
M330.651245,85.125618 
	C330.651245,73.342201 330.651245,61.558781 330.651245,49.638203 
	C326.936249,49.638203 323.744568,49.638203 320.069336,49.638203 
	C320.069336,55.875530 320.069336,61.745667 320.069336,68.666428 
	C314.750854,62.834835 309.978638,58.007374 305.702026,52.774811 
	C302.701050,49.102951 299.401093,48.531441 295.408905,49.789288 
	C295.408905,64.609283 295.408905,79.139053 295.408905,93.813393 
	C302.208649,90.489143 306.948792,86.351822 305.388885,78.045792 
	C304.873718,75.302765 305.307739,72.381493 305.307739,69.541725 
	C311.115662,74.405296 315.763062,79.343399 320.207306,84.458046 
	C323.329926,88.051689 326.775909,88.028755 330.651245,85.125618 
M340.653442,32.019642 
	C333.104767,32.022995 330.542511,33.931572 327.484039,42.036224 
	C337.721954,42.036224 347.854156,42.090084 357.983887,41.957485 
	C359.061920,41.943371 360.490143,41.099583 361.136993,40.197094 
	C365.354553,34.312675 368.667603,28.190348 362.148865,21.779663 
	C360.706757,20.361458 358.638733,18.922331 356.744629,18.750153 
	C351.954590,18.314724 347.092377,18.733572 342.275787,18.485918 
	C341.124664,18.426733 340.038727,17.100555 338.922791,16.357105 
	C340.006744,15.605683 341.051880,14.282782 342.181671,14.206028 
	C346.160065,13.935748 350.167542,14.091102 354.163971,14.088908 
	C360.822083,14.085254 364.530090,11.090392 366.380096,4.083244 
	C356.514069,4.083244 346.691772,4.024210 336.871979,4.155157 
	C335.590515,4.172245 333.880829,4.811965 333.117462,5.763423 
	C327.027588,13.354104 327.032104,15.739841 331.662170,24.310541 
	C333.144989,27.055424 334.905579,28.073685 337.949341,27.914473 
	C342.433563,27.679913 346.947784,27.675655 351.428345,27.934418 
	C352.679016,28.006645 353.856232,29.350098 355.067139,30.110392 
	C353.909943,30.747885 352.787689,31.843666 351.588867,31.935099 
	C348.277802,32.187622 344.934723,32.020504 340.653442,32.019642 
M367.190308,21.223732 
	C369.029816,26.816936 372.854828,28.711296 378.614227,27.930450 
	C382.047485,27.464972 385.609436,27.655430 389.081238,27.942179 
	C390.150513,28.030499 391.113129,29.410315 392.124603,30.198778 
	C391.108826,30.804623 390.119141,31.874334 389.072601,31.933184 
	C385.255646,32.147823 381.419769,32.028633 377.591003,32.028530 
	C370.432190,32.028336 366.916595,34.743347 364.808136,42.041817 
	C374.673828,42.041817 384.491791,42.118526 394.305725,41.954063 
	C395.681091,41.931019 397.508453,41.082920 398.322815,40.007854 
	C402.757019,34.154057 405.506989,27.980400 399.182861,21.641438 
	C397.846100,20.301556 395.933044,18.883547 394.181488,18.735970 
	C389.387482,18.332047 384.528595,18.748178 379.716980,18.468639 
	C378.472046,18.396311 377.306335,16.959875 376.104248,16.150040 
	C377.249786,15.469089 378.357269,14.292280 379.548096,14.200806 
	C383.023651,13.933818 386.532562,14.102182 390.028381,14.096375 
	C398.272369,14.082682 400.396484,12.576984 403.751221,4.090421 
	C394.493134,4.090421 385.385925,4.080593 376.278717,4.093469 
	C368.724945,4.104149 363.140015,13.855680 367.190308,21.223732 
M479.261353,59.301163 
	C484.479156,59.230358 487.824524,56.187901 490.075043,49.539093 
	C478.852722,49.539093 467.596344,49.539093 456.191162,49.539093 
	C456.191162,62.164829 456.191162,74.542419 456.191162,87.183388 
	C462.428680,87.183388 468.490845,86.503014 474.333649,87.345047 
	C482.803558,88.565681 486.466949,83.796173 489.880035,76.857285 
	C481.675903,76.857285 473.950195,76.857285 466.341797,76.857285 
	C465.345490,71.796822 468.878937,72.847717 470.928589,73.150658 
	C478.681915,74.296593 483.791046,71.418587 486.499695,63.795002 
	C480.656036,63.795002 475.003021,63.712132 469.353912,63.824966 
	C465.759033,63.896778 465.650757,62.226341 466.713531,59.301830 
	C470.718048,59.301830 474.527161,59.301830 479.261353,59.301163 
M320.876984,24.413006 
	C322.038025,22.746712 323.199066,21.080418 324.933868,18.590658 
	C318.160828,18.590658 312.671631,18.709318 307.196259,18.487200 
	C306.143341,18.444487 305.144653,17.064199 304.120972,16.300970 
	C305.169617,15.570032 306.140747,14.410913 307.284241,14.203927 
	C309.220642,13.853415 311.329132,13.781629 313.254456,14.158604 
	C321.388672,15.751266 325.236786,10.987316 328.367279,4.412129 
	C316.858246,4.412129 305.660217,4.412129 294.322144,4.412129 
	C294.322144,16.995602 294.322144,29.243906 294.322144,42.043114 
	C300.869690,42.043114 307.153229,42.044556 313.436768,42.042751 
	C321.517059,42.040428 323.888123,40.337376 327.117096,32.007175 
	C320.363647,32.007175 313.720490,32.104202 307.086365,31.903229 
	C306.083984,31.872864 305.123627,30.454256 304.143829,29.677799 
	C305.117981,29.069265 306.026642,28.151243 307.082306,27.927731 
	C308.517761,27.623806 310.069550,27.920807 311.564362,27.835329 
	C314.737213,27.653902 318.416840,28.983738 320.876984,24.413006 
M343.026917,87.190376 
	C346.188751,87.190399 349.441223,86.708481 352.495056,87.282799 
	C360.921051,88.867386 364.623077,83.797409 368.134521,76.812737 
	C359.887207,76.812737 352.196411,76.812737 344.661285,76.812737 
	C344.661285,70.729057 344.661285,65.185036 344.661285,59.430050 
	C353.889191,58.652660 365.009277,62.921417 368.374359,49.271538 
	C360.071350,49.271538 351.775391,49.221535 343.481415,49.327732 
	C342.295135,49.342918 340.702026,49.764751 340.008057,50.593578 
	C336.621796,54.637810 333.059326,58.580753 334.049469,64.672691 
	C334.576538,67.915405 334.188599,71.314728 334.135559,74.642120 
	C334.040405,80.610748 337.669312,84.162682 343.026917,87.190376 
M258.743866,69.071678 
	C258.342407,69.710960 257.940918,70.350235 257.152863,71.605148 
	C254.545090,65.216995 252.041016,59.465874 249.862396,53.594002 
	C248.666473,50.370701 247.010498,48.601627 243.324417,49.252068 
	C241.638336,49.549591 239.856201,49.302673 237.478378,49.302673 
	C242.546783,61.818142 247.280075,73.632599 252.189713,85.373322 
	C252.556290,86.249954 254.137375,86.971123 255.237930,87.113098 
	C257.355591,87.386307 259.533417,87.192711 261.950897,87.192711 
	C267.051849,74.613388 272.104340,62.153622 277.322723,49.284683 
	C275.281372,49.284683 274.090698,49.453640 272.964691,49.255276 
	C268.228790,48.420959 265.749573,50.376953 264.372040,54.975372 
	C262.998566,59.560234 260.814606,63.902302 258.743866,69.071678 
M435.471069,55.524231 
	C435.471069,51.365650 435.471069,47.207066 435.471069,42.831814 
	C427.449158,46.421780 423.685028,51.506706 425.093933,59.874916 
	C425.692078,63.427536 425.195099,67.164581 425.195312,70.817810 
	C425.195587,76.213890 425.195404,81.609970 425.195404,86.815613 
	C434.962952,86.815613 443.999054,86.815613 452.744385,86.815613 
	C452.744385,83.370811 452.744385,80.304733 452.744385,76.843475 
	C446.812286,76.843475 441.241821,76.843475 435.471008,76.843475 
	C435.471008,69.787979 435.471008,63.152588 435.471069,55.524231 
M379.049774,49.269108 
	C376.477905,49.269108 373.906036,49.269108 371.541565,49.269108 
	C371.541565,64.661880 371.541565,79.191261 371.541565,94.286377 
	C373.358093,92.942398 374.571533,91.781258 376.001526,91.035294 
	C380.565826,88.654305 381.721222,84.996475 381.491821,79.994141 
	C381.087738,71.180740 381.455414,62.334007 381.332306,53.503571 
	C381.312683,52.094257 380.420074,50.697121 379.049774,49.269108 
z"/>
<path fill="#CF1536" opacity="1.000000" stroke="none" 
	d="
M273.571533,1.000000 
	C274.000000,11.093231 274.000000,21.186462 274.000000,31.895073 
	C280.028107,31.895073 285.234650,31.895073 290.718628,31.895073 
	C290.718628,35.429039 290.718628,38.351772 290.718628,41.665771 
	C282.082550,41.665771 273.410248,41.665771 264.254608,41.665771 
	C264.254608,29.843801 264.106689,18.242605 264.419373,6.653833 
	C264.464539,4.980165 266.722321,3.366198 267.978088,1.362302 
	C269.714355,1.000000 271.428711,1.000000 273.571533,1.000000 
z"/>
<path fill="#090909" opacity="1.000000" stroke="none" 
	d="
M280.333313,97.000000 
	C280.000000,81.347466 280.000000,65.694939 280.000000,49.660667 
	C283.346069,49.660667 286.413177,49.660667 290.310760,49.660667 
	C290.310760,52.078156 290.310211,54.655090 290.310883,57.232025 
	C290.313049,65.894806 290.025543,74.571114 290.428955,83.215187 
	C290.663605,88.243286 289.447998,91.893440 284.806885,94.172035 
	C283.784790,94.673843 282.963470,95.584694 282.024841,96.653587 
	C281.555542,97.000000 281.111115,97.000000 280.333313,97.000000 
z"/>
<path fill="#D30D2F" opacity="1.000000" stroke="none" 
	d="
M159.125443,14.249238 
	C158.087784,17.456402 159.048569,18.828432 162.608902,18.682364 
	C167.887283,18.465811 173.181137,18.626328 179.043518,18.626328 
	C175.873444,24.640377 172.804260,29.485510 165.298615,27.846992 
	C164.029022,27.569832 162.559875,27.538105 161.340744,27.910154 
	C160.366547,28.207451 159.632278,29.290968 158.791519,30.025513 
	C159.696457,30.695082 160.587372,31.921795 161.508575,31.944983 
	C168.132782,32.111710 174.763153,32.034225 181.483841,32.034225 
	C178.554855,40.103249 175.908554,42.014435 167.895355,42.012032 
	C162.071915,42.010284 156.248459,41.995403 150.425079,41.971161 
	C150.110001,41.969849 149.795502,41.827808 148.743164,41.571949 
	C148.743164,32.754337 148.743164,23.733686 148.743164,13.610854 
	C139.529175,14.157017 131.088760,14.657325 122.207321,15.650620 
	C122.057579,16.805452 122.348862,17.467299 122.640152,18.129147 
	C122.640144,18.129147 122.855339,18.150558 123.018257,18.615387 
	C127.356133,19.372820 131.556976,19.478151 135.693283,20.050211 
	C137.347626,20.279011 138.859680,21.536465 140.436508,22.325682 
	C140.436508,22.325682 140.210007,21.967655 139.982666,22.183777 
	C139.541916,22.976511 139.328506,23.553125 139.115082,24.129736 
	C139.115082,24.129734 139.037521,24.045082 138.835724,24.163521 
	C138.499969,24.608488 138.366028,24.935017 138.232086,25.261547 
	C138.232086,25.261547 138.116867,25.101665 137.919189,25.216549 
	C137.610443,25.666670 137.499390,26.001905 137.388321,26.337139 
	C137.388321,26.337139 137.251312,26.286991 136.884872,26.237946 
	C134.654053,26.674307 132.789673,27.159714 130.925293,27.645123 
	C130.491653,27.694792 130.058029,27.744463 129.045288,27.508476 
	C126.978287,27.365736 125.490387,27.508654 124.002487,27.651569 
	C123.826050,27.715849 123.649612,27.780130 122.809174,28.003313 
	C121.780006,30.003942 121.163963,31.835875 121.091591,33.689034 
	C120.707787,43.517670 120.460518,53.351631 120.165939,63.183750 
	C120.165939,63.183750 120.006676,63.068127 119.827927,63.148796 
	C119.448097,63.514526 119.247002,63.799587 119.045914,64.084656 
	C119.045921,64.084656 119.011330,64.009033 118.797073,64.086761 
	C118.382538,64.429451 118.182251,64.694427 117.981964,64.959396 
	C117.981964,64.959396 117.995399,65.003563 117.605820,64.981537 
	C116.249199,65.078011 115.282150,65.196503 113.960114,65.358490 
	C113.960114,46.068867 113.915367,27.018629 114.087929,7.970358 
	C114.096863,6.984008 115.955109,5.170057 116.963844,5.161911 
	C136.762039,5.002031 156.562592,4.991555 176.360077,5.198371 
	C177.688202,5.212245 178.995773,7.195273 180.312897,8.262440 
	C180.312897,8.262440 180.068115,8.035996 179.890320,8.202560 
	C179.485596,8.928098 179.258682,9.487070 179.031769,10.046043 
	C179.031769,10.046043 178.997803,10.003885 178.777557,10.115685 
	C178.410675,10.538750 178.264038,10.850016 178.117416,11.161282 
	C178.117416,11.161282 178.070190,11.067243 177.856049,11.176501 
	C177.525299,11.620067 177.408707,11.954373 177.292114,12.288680 
	C177.292114,12.288680 177.112732,12.126051 176.789612,12.255856 
	C171.447815,12.576318 166.426086,12.715261 161.413651,13.011374 
	C160.629288,13.057712 159.887115,13.818704 159.125443,14.249238 
z"/>
<path fill="#070708" opacity="1.000000" stroke="none" 
	d="
M419.829529,67.335922 
	C419.992035,68.750473 420.049316,69.998665 420.674133,70.809570 
	C423.025299,73.860916 422.212799,76.452179 420.769501,79.786903 
	C418.163818,85.807114 414.419739,87.990082 407.832428,87.342209 
	C400.802002,86.650772 393.650879,87.186478 386.347687,87.186478 
	C386.347687,74.436043 386.347687,62.197414 386.347687,49.311283 
	C395.871490,49.311283 405.289459,49.243721 414.703247,49.410751 
	C415.697357,49.428387 416.850708,50.678528 417.600983,51.619404 
	C418.518799,52.770355 418.941223,54.311211 419.837097,55.485741 
	C422.759369,59.317036 423.325073,63.096138 419.829529,67.335922 
M404.477051,59.197243 
	C402.651764,59.197586 400.752197,58.892433 399.028625,59.311337 
	C397.972412,59.568039 397.185974,60.934822 396.278381,61.803093 
	C397.186401,62.496964 398.048981,63.703861 399.010956,63.789139 
	C401.974548,64.051857 404.996429,64.086845 407.953094,63.788406 
	C409.147034,63.667889 410.230621,62.454247 411.364410,61.738041 
	C410.203064,60.892086 409.114777,59.902443 407.850311,59.259125 
	C407.190796,58.923576 406.220947,59.197941 404.477051,59.197243 
M403.556641,73.035561 
	C402.061951,73.036621 400.509521,72.790794 399.092102,73.122292 
	C398.084106,73.358055 397.258087,74.371704 396.350830,75.038177 
	C397.214050,75.723495 398.000946,76.829559 398.957001,77.002991 
	C400.726044,77.323906 402.636566,77.345444 404.410400,77.040001 
	C406.724060,76.641609 408.962067,75.803902 411.232605,75.155220 
	C408.985870,74.448654 406.739136,73.742088 403.556641,73.035561 
z"/>
<path fill="#CF1334" opacity="1.000000" stroke="none" 
	d="
M185.163239,57.234482 
	C184.842438,43.313610 184.398438,29.393972 184.258957,15.471283 
	C184.199722,9.558642 190.169479,4.085003 196.026352,4.082822 
	C198.854019,4.081769 201.681671,4.083106 204.509338,4.084039 
	C214.247177,4.087253 218.895004,8.687865 218.904266,18.379055 
	C218.911255,25.696762 218.880676,33.014523 218.850296,40.332188 
	C218.848999,40.643185 218.681000,40.953491 218.481140,41.640663 
	C215.555222,41.640663 212.515503,41.640663 209.074631,41.640663 
	C208.921936,38.583107 208.768799,35.516602 208.599838,32.132950 
	C203.915512,32.132950 199.510605,32.132950 194.288742,32.132950 
	C194.288742,38.416096 194.288742,44.668510 193.855911,51.502991 
	C190.669800,53.801533 187.916519,55.518005 185.163239,57.234482 
M208.542557,21.066263 
	C208.542557,18.836952 208.542557,16.607639 208.542557,14.060161 
	C204.697525,14.060161 201.369934,14.239755 198.070969,14.009430 
	C194.800140,13.781072 194.187820,15.344840 194.188019,18.182379 
	C194.188217,20.941442 195.045151,22.167673 197.928101,21.965626 
	C201.239700,21.733541 204.569214,21.757149 208.542557,21.066263 
z"/>
<path fill="#080707" opacity="1.000000" stroke="none" 
	d="
M233.725006,42.872627 
	C233.725006,57.491207 233.725006,72.109795 233.725006,86.655891 
	C227.439392,88.210464 222.645615,87.266922 219.207474,81.309265 
	C216.792709,77.124924 213.339035,73.540138 209.252777,70.102333 
	C209.252777,72.687302 209.253555,75.272263 209.252655,77.857231 
	C209.249252,87.678551 209.249039,87.678551 199.475342,93.996162 
	C199.475342,79.116997 199.475342,64.485474 199.475342,49.779232 
	C203.993546,48.334694 207.266037,49.639297 210.179092,53.467323 
	C213.942169,58.412376 218.266190,62.930550 222.348679,67.632538 
	C222.861313,67.503815 223.373932,67.375092 223.886566,67.246368 
	C223.886566,61.202885 223.886566,55.159401 224.333069,48.704056 
	C225.612061,47.640663 226.444534,46.989132 227.289948,46.271851 
	C227.302887,46.206100 227.223038,46.313747 227.558929,46.289791 
	C229.249405,45.170071 230.604004,44.074306 231.979736,42.989414 
	C232.000870,43.000286 231.980576,42.957291 232.273773,42.995335 
	C232.952988,42.979794 233.339005,42.926208 233.725006,42.872627 
z"/>
<path fill="#0B0B0B" opacity="1.000000" stroke="none" 
	d="
M330.642151,85.587616 
	C326.775909,88.028755 323.329926,88.051689 320.207306,84.458046 
	C315.763062,79.343399 311.115662,74.405296 305.307739,69.541725 
	C305.307739,72.381493 304.873718,75.302765 305.388885,78.045792 
	C306.948792,86.351822 302.208649,90.489143 295.408905,93.813393 
	C295.408905,79.139053 295.408905,64.609283 295.408905,49.789288 
	C299.401093,48.531441 302.701050,49.102951 305.702026,52.774811 
	C309.978638,58.007374 314.750854,62.834835 320.069336,68.666428 
	C320.069336,61.745667 320.069336,55.875530 320.069336,49.638203 
	C323.744568,49.638203 326.936249,49.638203 330.651245,49.638203 
	C330.651245,61.558781 330.651245,73.342201 330.642151,85.587616 
z"/>
<path fill="#CE1434" opacity="1.000000" stroke="none" 
	d="
M341.128876,32.019478 
	C344.934723,32.020504 348.277802,32.187622 351.588867,31.935099 
	C352.787689,31.843666 353.909943,30.747885 355.067139,30.110390 
	C353.856232,29.350098 352.679016,28.006645 351.428345,27.934418 
	C346.947784,27.675655 342.433563,27.679913 337.949341,27.914473 
	C334.905579,28.073685 333.144989,27.055424 331.662170,24.310541 
	C327.032104,15.739841 327.027588,13.354104 333.117462,5.763423 
	C333.880829,4.811965 335.590515,4.172245 336.871979,4.155157 
	C346.691772,4.024210 356.514069,4.083244 366.380096,4.083244 
	C364.530090,11.090392 360.822083,14.085254 354.163971,14.088908 
	C350.167542,14.091102 346.160065,13.935748 342.181671,14.206028 
	C341.051880,14.282782 340.006744,15.605683 338.922791,16.357107 
	C340.038727,17.100555 341.124664,18.426733 342.275787,18.485918 
	C347.092377,18.733572 351.954590,18.314724 356.744629,18.750153 
	C358.638733,18.922331 360.706757,20.361458 362.148865,21.779663 
	C368.667603,28.190348 365.354553,34.312675 361.136993,40.197094 
	C360.490143,41.099583 359.061920,41.943371 357.983887,41.957485 
	C347.854156,42.090084 337.721954,42.036224 327.484039,42.036224 
	C330.542511,33.931572 333.104767,32.022995 341.128876,32.019478 
z"/>
<path fill="#CF1334" opacity="1.000000" stroke="none" 
	d="
M367.019135,20.880287 
	C363.140015,13.855680 368.724945,4.104149 376.278717,4.093469 
	C385.385925,4.080593 394.493134,4.090421 403.751221,4.090421 
	C400.396484,12.576984 398.272369,14.082682 390.028381,14.096375 
	C386.532562,14.102182 383.023651,13.933818 379.548096,14.200806 
	C378.357269,14.292280 377.249786,15.469089 376.104248,16.150038 
	C377.306335,16.959875 378.472046,18.396311 379.716980,18.468639 
	C384.528595,18.748178 389.387482,18.332047 394.181488,18.735970 
	C395.933044,18.883547 397.846100,20.301556 399.182861,21.641438 
	C405.506989,27.980400 402.757019,34.154057 398.322815,40.007854 
	C397.508453,41.082920 395.681091,41.931019 394.305725,41.954063 
	C384.491791,42.118526 374.673828,42.041817 364.808136,42.041817 
	C366.916595,34.743347 370.432190,32.028336 377.591003,32.028530 
	C381.419769,32.028633 385.255646,32.147823 389.072601,31.933184 
	C390.119141,31.874334 391.108826,30.804623 392.124603,30.198772 
	C391.113129,29.410315 390.150513,28.030499 389.081238,27.942179 
	C385.609436,27.655430 382.047485,27.464972 378.614227,27.930450 
	C372.854828,28.711296 369.029816,26.816936 367.019135,20.880287 
z"/>
<path fill="#060606" opacity="1.000000" stroke="none" 
	d="
M478.798798,59.301498 
	C474.527161,59.301830 470.718048,59.301830 466.713531,59.301830 
	C465.650757,62.226341 465.759033,63.896778 469.353912,63.824966 
	C475.003021,63.712132 480.656036,63.795002 486.499695,63.795002 
	C483.791046,71.418587 478.681915,74.296593 470.928589,73.150658 
	C468.878937,72.847717 465.345490,71.796822 466.341797,76.857285 
	C473.950195,76.857285 481.675903,76.857285 489.880035,76.857285 
	C486.466949,83.796173 482.803558,88.565681 474.333649,87.345047 
	C468.490845,86.503014 462.428680,87.183388 456.191162,87.183388 
	C456.191162,74.542419 456.191162,62.164829 456.191162,49.539093 
	C467.596344,49.539093 478.852722,49.539093 490.075043,49.539093 
	C487.824524,56.187901 484.479156,59.230358 478.798798,59.301498 
z"/>
<path fill="#CE1334" opacity="1.000000" stroke="none" 
	d="
M320.631561,24.714691 
	C318.416840,28.983738 314.737213,27.653902 311.564362,27.835329 
	C310.069550,27.920807 308.517761,27.623806 307.082306,27.927731 
	C306.026642,28.151243 305.117981,29.069265 304.143829,29.677797 
	C305.123627,30.454256 306.083984,31.872864 307.086365,31.903229 
	C313.720490,32.104202 320.363647,32.007175 327.117096,32.007175 
	C323.888123,40.337376 321.517059,42.040428 313.436768,42.042751 
	C307.153229,42.044556 300.869690,42.043114 294.322144,42.043114 
	C294.322144,29.243906 294.322144,16.995602 294.322144,4.412129 
	C305.660217,4.412129 316.858246,4.412129 328.367279,4.412129 
	C325.236786,10.987316 321.388672,15.751266 313.254456,14.158604 
	C311.329132,13.781629 309.220642,13.853415 307.284241,14.203927 
	C306.140747,14.410913 305.169617,15.570032 304.120972,16.300970 
	C305.144653,17.064199 306.143341,18.444487 307.196259,18.487200 
	C312.671631,18.709318 318.160828,18.590658 324.933868,18.590658 
	C323.199066,21.080418 322.038025,22.746712 320.631561,24.714691 
z"/>
<path fill="#D30E31" opacity="1.000000" stroke="none" 
	d="
M254.046875,6.058146 
	C254.046875,6.058145 254.213409,6.181428 254.162018,6.673012 
	C254.568085,7.665668 255.025528,8.166741 255.482971,8.667809 
	C255.482986,8.667804 255.306030,8.896428 255.317810,9.051060 
	C255.600464,9.452332 255.871338,9.698975 256.142212,9.945618 
	C256.142212,9.945618 256.054291,9.950331 256.057922,10.237866 
	C256.451996,10.983118 256.842438,11.440835 257.232880,11.898550 
	C257.232880,11.898548 257.129211,11.903888 257.114868,12.191334 
	C257.507812,12.927871 257.915161,13.376961 258.322510,13.826047 
	C258.322510,13.826043 258.204590,13.854823 258.147247,14.284618 
	C258.130066,16.024267 258.170197,17.334120 258.210358,18.643974 
	C258.210358,18.643974 258.230255,18.818399 257.847778,19.028805 
	C257.055664,20.239128 256.645996,21.239044 256.236328,22.238960 
	C256.236328,22.238958 256.182037,22.132896 255.921738,22.246069 
	C254.954575,23.678268 252.497131,25.236141 256.152710,25.959970 
	C256.495087,26.022532 256.737091,26.212772 256.925598,27.161777 
	C257.617004,30.928347 258.726410,34.070503 258.681549,37.196095 
	C258.663116,38.478897 256.214233,40.612080 254.760635,40.709312 
	C253.594757,40.787296 252.051636,38.513985 251.073151,37.023369 
	C250.342453,35.910248 250.245377,34.381191 249.866150,33.037354 
	C247.820282,32.038570 245.852554,30.471413 243.709854,30.176798 
	C240.644196,29.755283 237.450607,30.264067 233.772247,30.994890 
	C232.815414,35.395222 232.397995,39.176254 231.980576,42.957291 
	C231.980576,42.957291 232.000870,43.000286 231.624527,42.990692 
	C229.906464,44.091980 228.564743,45.202862 227.223038,46.313744 
	C227.223038,46.313747 227.302887,46.206100 226.876984,46.098896 
	C225.982880,45.366951 225.110825,44.745216 225.106140,44.117020 
	C225.016785,32.120934 224.964447,20.123150 225.137344,8.129065 
	C225.152100,7.105756 226.817062,5.222593 227.699203,5.232179 
	C236.483704,5.327634 245.264816,5.737250 254.046875,6.058146 
M248.915085,17.414392 
	C247.812119,16.295242 246.803757,14.350353 245.588516,14.211120 
	C241.880707,13.786306 238.093231,14.056944 234.187485,14.056944 
	C234.187485,16.286964 234.187485,17.960171 234.187485,20.885893 
	C239.380783,19.922663 244.000641,19.065794 248.915085,17.414392 
z"/>
<path fill="#0A0A0A" opacity="1.000000" stroke="none" 
	d="
M342.590607,87.187195 
	C337.669312,84.162682 334.040405,80.610748 334.135559,74.642120 
	C334.188599,71.314728 334.576538,67.915405 334.049469,64.672691 
	C333.059326,58.580753 336.621796,54.637810 340.008057,50.593578 
	C340.702026,49.764751 342.295135,49.342918 343.481415,49.327732 
	C351.775391,49.221535 360.071350,49.271538 368.374359,49.271538 
	C365.009277,62.921417 353.889191,58.652660 344.661285,59.430050 
	C344.661285,65.185036 344.661285,70.729057 344.661285,76.812737 
	C352.196411,76.812737 359.887207,76.812737 368.134521,76.812737 
	C364.623077,83.797409 360.921051,88.867386 352.495056,87.282799 
	C349.441223,86.708481 346.188751,87.190399 342.590607,87.187195 
z"/>
<path fill="#0A0A0A" opacity="1.000000" stroke="none" 
	d="
M258.864929,68.711250 
	C260.814606,63.902302 262.998566,59.560234 264.372040,54.975372 
	C265.749573,50.376953 268.228790,48.420959 272.964691,49.255276 
	C274.090698,49.453640 275.281372,49.284683 277.322723,49.284683 
	C272.104340,62.153622 267.051849,74.613388 261.950897,87.192711 
	C259.533417,87.192711 257.355591,87.386307 255.237930,87.113098 
	C254.137375,86.971123 252.556290,86.249954 252.189713,85.373322 
	C247.280075,73.632599 242.546783,61.818142 237.478378,49.302673 
	C239.856201,49.302673 241.638336,49.549591 243.324417,49.252068 
	C247.010498,48.601627 248.666473,50.370701 249.862396,53.594002 
	C252.041016,59.465874 254.545090,65.216995 257.152863,71.605148 
	C257.940918,70.350235 258.342407,69.710960 258.864929,68.711250 
z"/>
<path fill="#070707" opacity="1.000000" stroke="none" 
	d="
M435.471039,56.020714 
	C435.471008,63.152588 435.471008,69.787979 435.471008,76.843475 
	C441.241821,76.843475 446.812286,76.843475 452.744385,76.843475 
	C452.744385,80.304733 452.744385,83.370811 452.744385,86.815613 
	C443.999054,86.815613 434.962952,86.815613 425.195404,86.815613 
	C425.195404,81.609970 425.195587,76.213890 425.195312,70.817810 
	C425.195099,67.164581 425.692078,63.427536 425.093933,59.874916 
	C423.685028,51.506706 427.449158,46.421780 435.471069,42.831814 
	C435.471069,47.207066 435.471069,51.365650 435.471039,56.020714 
z"/>
<path fill="#0C0C0C" opacity="1.000000" stroke="none" 
	d="
M379.490417,49.281731 
	C380.420074,50.697121 381.312683,52.094257 381.332306,53.503571 
	C381.455414,62.334007 381.087738,71.180740 381.491821,79.994141 
	C381.721222,84.996475 380.565826,88.654305 376.001526,91.035294 
	C374.571533,91.781258 373.358093,92.942398 371.541565,94.286377 
	C371.541565,79.191261 371.541565,64.661880 371.541565,49.269108 
	C373.906036,49.269108 376.477905,49.269108 379.490417,49.281731 
z"/>
<path fill="#0D0A0B" opacity="1.000000" stroke="none" 
	d="
M185.049866,57.618233 
	C187.916519,55.518005 190.669800,53.801533 193.746368,51.948509 
	C194.161240,61.943695 194.564194,72.089081 194.120758,82.197350 
	C194.012787,84.658554 191.227249,87.076950 189.478790,89.366837 
	C188.187332,91.058205 186.580719,92.508926 184.245361,94.990387 
	C184.245361,89.383652 184.164642,84.863846 184.263596,80.347984 
	C184.426819,72.897980 184.706131,65.450516 185.049866,57.618233 
z"/>
<path fill="#C1304B" opacity="1.000000" stroke="none" 
	d="
M180.611923,8.070325 
	C178.995773,7.195273 177.688202,5.212245 176.360077,5.198371 
	C156.562592,4.991555 136.762039,5.002031 116.963844,5.161911 
	C115.955109,5.170057 114.096863,6.984008 114.087929,7.970358 
	C113.915367,27.018629 113.960114,46.068867 113.960114,65.358490 
	C115.282150,65.196503 116.249199,65.078011 117.588547,64.966034 
	C116.358040,66.298737 114.755234,67.624916 112.497467,69.493011 
	C112.497467,47.234928 112.497467,25.926859 112.497467,4.308945 
	C135.907410,4.308945 159.121841,4.308945 183.187958,4.308945 
	C182.313721,5.679325 181.612335,6.778767 180.611923,8.070325 
z"/>
<path fill="#B7243F" opacity="1.000000" stroke="none" 
	d="
M253.961823,5.649967 
	C245.264816,5.737250 236.483704,5.327634 227.699203,5.232179 
	C226.817062,5.222593 225.152100,7.105756 225.137344,8.129065 
	C224.964447,20.123150 225.016785,32.120934 225.106140,44.117020 
	C225.110825,44.745216 225.982880,45.366951 226.864044,46.164646 
	C226.444534,46.989132 225.612061,47.640663 224.431427,48.323502 
	C223.909027,39.564892 223.693161,30.775539 223.575211,21.984871 
	C223.497421,16.188471 223.560501,10.390181 223.560501,4.126673 
	C233.453171,4.126673 242.884369,4.108897 252.314987,4.174245 
	C252.838043,4.177869 253.356293,4.870083 253.961823,5.649967 
z"/>
<path fill="#C1304B" opacity="1.000000" stroke="none" 
	d="
M120.530045,63.089954 
	C120.460518,53.351631 120.707787,43.517670 121.091591,33.689034 
	C121.163963,31.835875 121.780006,30.003942 122.534348,28.065086 
	C122.789444,37.859993 122.731956,47.754204 122.451233,57.642078 
	C122.400185,59.440056 121.436516,61.212128 120.530045,63.089954 
z"/>
<path fill="#C1304B" opacity="1.000000" stroke="none" 
	d="
M140.723938,22.154127 
	C138.859680,21.536465 137.347626,20.279011 135.693283,20.050211 
	C131.556976,19.478151 127.356133,19.372820 123.024895,18.723312 
	C129.194229,18.415447 135.519852,18.463299 141.845383,18.520786 
	C141.993576,18.522133 142.140793,18.631767 142.809616,18.899536 
	C142.189468,19.962757 141.600418,20.972666 140.723938,22.154127 
z"/>
<path fill="#B7243F" opacity="1.000000" stroke="none" 
	d="
M249.794434,33.492538 
	C250.245377,34.381191 250.342453,35.910248 251.073151,37.023369 
	C252.051636,38.513985 253.594757,40.787296 254.760635,40.709312 
	C256.214233,40.612080 258.663116,38.478897 258.681549,37.196095 
	C258.726410,34.070503 257.617004,30.928347 256.971252,27.396141 
	C262.015564,31.047224 258.980927,36.497757 259.989960,41.705544 
	C256.435822,41.705544 253.398911,41.705544 249.722733,41.705544 
	C249.722733,39.123940 249.722733,36.535831 249.794434,33.492538 
z"/>
<path fill="#C1304B" opacity="1.000000" stroke="none" 
	d="
M159.584503,14.225462 
	C159.887115,13.818704 160.629288,13.057712 161.413651,13.011374 
	C166.426086,12.715261 171.447815,12.576318 176.896606,12.312489 
	C176.011154,12.882805 174.722168,14.007171 173.375137,14.081608 
	C168.942596,14.326552 164.489029,14.191050 159.584503,14.225462 
z"/>
<path fill="#B7243F" opacity="1.000000" stroke="none" 
	d="
M232.273773,42.995335 
	C232.397995,39.176254 232.815414,35.395222 233.470367,31.317116 
	C233.768936,34.681137 233.830002,38.342228 233.808029,42.437973 
	C233.339005,42.926208 232.952988,42.979794 232.273773,42.995335 
z"/>
<path fill="#C1304B" opacity="1.000000" stroke="none" 
	d="
M131.321198,27.749855 
	C132.789673,27.159714 134.654053,26.674307 136.930176,26.295122 
	C135.466980,26.885759 133.592026,27.370174 131.321198,27.749855 
z"/>
<path fill="#B7243F" opacity="1.000000" stroke="none" 
	d="
M256.082428,25.576889 
	C252.497131,25.236141 254.954575,23.678268 255.980988,22.252254 
	C256.204407,23.161449 256.108276,24.177629 256.082428,25.576889 
z"/>
<path fill="#B7243F" opacity="1.000000" stroke="none" 
	d="
M258.484619,18.449677 
	C258.170197,17.334120 258.130066,16.024267 258.170410,14.228519 
	C258.420197,15.246877 258.589539,16.751127 258.484619,18.449677 
z"/>
<path fill="#C1304B" opacity="1.000000" stroke="none" 
	d="
M124.408890,27.757627 
	C125.490387,27.508654 126.978287,27.365736 128.723984,27.435486 
	C127.592949,27.719995 126.204124,27.791840 124.408890,27.757627 
z"/>
<path fill="#B7243F" opacity="1.000000" stroke="none" 
	d="
M256.504974,22.055040 
	C256.645996,21.239044 257.055664,20.239128 257.780212,19.084845 
	C257.654633,19.910692 257.214111,20.890905 256.504974,22.055040 
z"/>
<path fill="#C1304B" opacity="1.000000" stroke="none" 
	d="
M122.606491,17.752792 
	C122.348862,17.467299 122.057579,16.805452 121.981094,16.037247 
	C122.321533,16.412737 122.447174,16.894588 122.606491,17.752792 
z"/>
<path fill="#B7243F" opacity="1.000000" stroke="none" 
	d="
M255.419800,8.333711 
	C255.025528,8.166741 254.568085,7.665668 254.144165,6.775062 
	C254.570679,6.923554 254.963654,7.461581 255.419800,8.333711 
z"/>
<path fill="#C1304B" opacity="1.000000" stroke="none" 
	d="
M179.298767,9.918960 
	C179.258682,9.487070 179.485596,8.928098 180.024567,8.301439 
	C180.079666,8.753128 179.822723,9.272502 179.298767,9.918960 
z"/>
<path fill="#B7243F" opacity="1.000000" stroke="none" 
	d="
M257.204529,11.590330 
	C256.842438,11.440835 256.451996,10.983118 256.078217,10.198811 
	C256.455322,10.342182 256.815765,10.812144 257.204529,11.590330 
z"/>
<path fill="#B7243F" opacity="1.000000" stroke="none" 
	d="
M258.284393,13.520256 
	C257.915161,13.376961 257.507812,12.927871 257.136047,12.143955 
	C257.529816,12.277575 257.888031,12.746017 258.284393,13.520256 
z"/>
<path fill="#C1304B" opacity="1.000000" stroke="none" 
	d="
M139.379349,24.005100 
	C139.328506,23.553125 139.541916,22.976511 140.083099,22.370070 
	C140.155121,22.853649 139.899353,23.367058 139.379349,24.005100 
z"/>
<path fill="#C1304B" opacity="1.000000" stroke="none" 
	d="
M177.538834,12.182335 
	C177.408707,11.954373 177.525299,11.620067 177.905975,11.193105 
	C178.041870,11.425630 177.913712,11.750810 177.538834,12.182335 
z"/>
<path fill="#C1304B" opacity="1.000000" stroke="none" 
	d="
M178.374084,11.071989 
	C178.264038,10.850016 178.410675,10.538750 178.803375,10.123747 
	C178.909866,10.340906 178.770309,10.661802 178.374084,11.071989 
z"/>
<path fill="#B7243F" opacity="1.000000" stroke="none" 
	d="
M256.126526,9.677177 
	C255.871338,9.698975 255.600464,9.452332 255.378738,8.919972 
	C255.655548,8.892416 255.883209,9.150578 256.126526,9.677177 
z"/>
<path fill="#C1304B" opacity="1.000000" stroke="none" 
	d="
M119.314957,64.043762 
	C119.247002,63.799587 119.448097,63.514526 119.917137,63.190323 
	C119.984718,63.435081 119.784355,63.718983 119.314957,64.043762 
z"/>
<path fill="#C1304B" opacity="1.000000" stroke="none" 
	d="
M118.245071,64.925949 
	C118.182251,64.694427 118.382538,64.429451 118.832367,64.108749 
	C118.890671,64.332848 118.699417,64.612679 118.245071,64.925949 
z"/>
<path fill="#C1304B" opacity="1.000000" stroke="none" 
	d="
M137.625763,26.236019 
	C137.499390,26.001905 137.610443,25.666670 137.999695,25.273357 
	C138.139664,25.521822 138.001450,25.828360 137.625763,26.236019 
z"/>
<path fill="#C1304B" opacity="1.000000" stroke="none" 
	d="
M138.489365,25.163940 
	C138.366028,24.935017 138.499969,24.608488 138.890808,24.179684 
	C139.014008,24.407051 138.880325,24.736694 138.489365,25.163940 
z"/>
<path fill="#DBDBDB" opacity="1.000000" stroke="none" 
	d="
M404.934143,59.197029 
	C406.220947,59.197941 407.190796,58.923576 407.850311,59.259125 
	C409.114777,59.902443 410.203064,60.892086 411.364410,61.738052 
	C410.230621,62.454247 409.147034,63.667889 407.953094,63.788406 
	C404.996429,64.086845 401.974548,64.051857 399.010956,63.789139 
	C398.048981,63.703861 397.186401,62.496964 396.278381,61.803093 
	C397.185974,60.934822 397.972412,59.568039 399.028625,59.311337 
	C400.752197,58.892433 402.651764,59.197586 404.934143,59.197029 
z"/>
<path fill="#F0F0F0" opacity="1.000000" stroke="none" 
	d="
M404.024536,73.035538 
	C406.739136,73.742088 408.985870,74.448654 411.232605,75.155220 
	C408.962067,75.803902 406.724060,76.641609 404.410400,77.040001 
	C402.636566,77.345444 400.726044,77.323906 398.957001,77.002991 
	C398.000946,76.829559 397.214050,75.723495 396.350830,75.038177 
	C397.258087,74.371704 398.084106,73.358055 399.092102,73.122292 
	C400.509521,72.790794 402.061951,73.036621 404.024536,73.035538 
z"/>
<path fill="#FAEBEE" opacity="1.000000" stroke="none" 
	d="
M208.216751,21.367977 
	C204.569214,21.757149 201.239700,21.733541 197.928101,21.965626 
	C195.045151,22.167673 194.188217,20.941442 194.188019,18.182379 
	C194.187820,15.344840 194.800140,13.781072 198.070969,14.009430 
	C201.369934,14.239755 204.697525,14.060161 208.542557,14.060161 
	C208.542557,16.607639 208.542557,18.836952 208.216751,21.367977 
z"/>
<path fill="#B7243F" opacity="1.000000" stroke="none" 
	d="
M227.558929,46.289787 
	C228.564743,45.202862 229.906464,44.091980 231.603394,42.979820 
	C230.604004,44.074306 229.249405,45.170071 227.558929,46.289787 
z"/>
<path fill="#FBEDEF" opacity="1.000000" stroke="none" 
	d="
M248.767792,17.811659 
	C244.000641,19.065794 239.380783,19.922663 234.187485,20.885893 
	C234.187485,17.960171 234.187485,16.286964 234.187485,14.056944 
	C238.093231,14.056944 241.880707,13.786306 245.588516,14.211120 
	C246.803757,14.350353 247.812119,16.295242 248.767792,17.811659 
z"/>
</svg>